<svg width="17" height="17" viewBox="0 0 17 17" fill="none" xmlns="http://www.w3.org/2000/svg">
<g id="bi:chat-dots-fill" clip-path="url(#clip0_1_173)">
<g id="Group">
<path id="Vector" d="M16.6187 8.37891C16.6187 12.2449 13.0367 15.3789 8.61865 15.3789C7.8263 15.38 7.03724 15.2771 6.27165 15.0729C5.68765 15.3689 4.34665 15.9369 2.09065 16.3069C1.89065 16.3389 1.73865 16.1309 1.81765 15.9449C2.17165 15.1089 2.49165 13.9949 2.58765 12.9789C1.36265 11.7489 0.618652 10.1389 0.618652 8.37891C0.618652 4.51291 4.20065 1.37891 8.61865 1.37891C13.0367 1.37891 16.6187 4.51291 16.6187 8.37891ZM5.61865 8.37891C5.61865 8.11369 5.5133 7.85934 5.32576 7.6718C5.13822 7.48426 4.88387 7.37891 4.61865 7.37891C4.35344 7.37891 4.09908 7.48426 3.91155 7.6718C3.72401 7.85934 3.61865 8.11369 3.61865 8.37891C3.61865 8.64412 3.72401 8.89848 3.91155 9.08601C4.09908 9.27355 4.35344 9.37891 4.61865 9.37891C4.88387 9.37891 5.13822 9.27355 5.32576 9.08601C5.5133 8.89848 5.61865 8.64412 5.61865 8.37891ZM9.61865 8.37891C9.61865 8.11369 9.5133 7.85934 9.32576 7.6718C9.13822 7.48426 8.88387 7.37891 8.61865 7.37891C8.35344 7.37891 8.09908 7.48426 7.91155 7.6718C7.72401 7.85934 7.61865 8.11369 7.61865 8.37891C7.61865 8.64412 7.72401 8.89848 7.91155 9.08601C8.09908 9.27355 8.35344 9.37891 8.61865 9.37891C8.88387 9.37891 9.13822 9.27355 9.32576 9.08601C9.5133 8.89848 9.61865 8.64412 9.61865 8.37891ZM12.6187 9.37891C12.8839 9.37891 13.1382 9.27355 13.3258 9.08601C13.5133 8.89848 13.6187 8.64412 13.6187 8.37891C13.6187 8.11369 13.5133 7.85934 13.3258 7.6718C13.1382 7.48426 12.8839 7.37891 12.6187 7.37891C12.3534 7.37891 12.0991 7.48426 11.9115 7.6718C11.724 7.85934 11.6187 8.11369 11.6187 8.37891C11.6187 8.64412 11.724 8.89848 11.9115 9.08601C12.0991 9.27355 12.3534 9.37891 12.6187 9.37891Z" fill="white"/>
</g>
</g>
<defs>
<clipPath id="clip0_1_173">
<rect width="16" height="16" fill="white" transform="translate(0.618652 0.378906)"/>
</clipPath>
</defs>
</svg>
