<svg width="16" height="17" viewBox="0 0 16 17" fill="none" xmlns="http://www.w3.org/2000/svg">
<g id="Frame">
<g id="Group">
<path id="Vector" d="M0.666626 14.5004H3.33329V6.50045H0.666626V14.5004ZM15.3333 7.16711C15.3333 6.43378 14.7333 5.83378 14 5.83378H9.79329L10.4266 2.78711L10.4466 2.57378C10.4466 2.30045 10.3333 2.04711 10.1533 1.86711L9.44663 1.16711L5.05996 5.56045C4.81329 5.80045 4.66663 6.13378 4.66663 6.50045V13.1671C4.66663 13.9004 5.26663 14.5004 5.99996 14.5004H12C12.5533 14.5004 13.0266 14.1671 13.2266 13.6871L15.24 8.98711C15.3 8.83378 15.3333 8.67378 15.3333 8.50045V7.22711L15.3266 7.22045L15.3333 7.16711Z" fill="black"/>
</g>
</g>
</svg>
